<mxfile host="app.diagrams.net" agent="Mozilla/5.0 (X11; Linux x86_64) AppleWebKit/537.36 (KHTML, like Gecko) Chrome/133.0.0.0 Safari/537.36" version="24.8.3">
  <diagram name="Page-1" id="ZPZHe3RqkGBniQBor_S-">
    <mxGraphModel dx="1660" dy="1078" grid="1" gridSize="10" guides="1" tooltips="1" connect="1" arrows="1" fold="1" page="1" pageScale="1" pageWidth="850" pageHeight="1100" math="0" shadow="0">
      <root>
        <mxCell id="0" />
        <mxCell id="1" parent="0" />
        <mxCell id="1KvCY6qWmXNgKM9IywfJ-2" value="1" style="rounded=0;whiteSpace=wrap;html=1;fillColor=#dae8fc;strokeColor=#6c8ebf;fontFamily=Lucida Console;fontSize=12;" vertex="1" parent="1">
          <mxGeometry x="214" y="169" width="120" height="40" as="geometry" />
        </mxCell>
        <mxCell id="1KvCY6qWmXNgKM9IywfJ-3" value="&lt;font style=&quot;font-size: 12px;&quot;&gt;Time&lt;/font&gt;" style="endArrow=classic;html=1;rounded=0;fontFamily=Lucida Console;fontSize=12;labelBackgroundColor=none;spacingLeft=0;spacingBottom=-20;" edge="1" parent="1">
          <mxGeometry width="50" height="50" relative="1" as="geometry">
            <mxPoint x="45" y="448" as="sourcePoint" />
            <mxPoint x="445" y="448" as="targetPoint" />
          </mxGeometry>
        </mxCell>
        <mxCell id="1KvCY6qWmXNgKM9IywfJ-4" value="&lt;font style=&quot;font-size: 12px;&quot;&gt;Resources&lt;/font&gt;" style="endArrow=classic;html=1;rounded=0;verticalAlign=middle;horizontal=0;fontFamily=Lucida Console;fontSize=12;labelBackgroundColor=none;spacingLeft=-20;" edge="1" parent="1">
          <mxGeometry width="50" height="50" relative="1" as="geometry">
            <mxPoint x="45" y="448" as="sourcePoint" />
            <mxPoint x="45" y="318" as="targetPoint" />
          </mxGeometry>
        </mxCell>
        <mxCell id="1KvCY6qWmXNgKM9IywfJ-14" value="2" style="rounded=0;whiteSpace=wrap;html=1;fillColor=#d5e8d4;strokeColor=#82b366;fontFamily=Lucida Console;fontSize=12;" vertex="1" parent="1">
          <mxGeometry x="334" y="89" width="40" height="120" as="geometry" />
        </mxCell>
        <mxCell id="1KvCY6qWmXNgKM9IywfJ-15" value="3" style="rounded=0;whiteSpace=wrap;html=1;fillColor=#ffe6cc;strokeColor=#d79b00;fontFamily=Lucida Console;fontSize=12;" vertex="1" parent="1">
          <mxGeometry x="374" y="129" width="40" height="80" as="geometry" />
        </mxCell>
        <mxCell id="1KvCY6qWmXNgKM9IywfJ-18" value="4" style="rounded=0;whiteSpace=wrap;html=1;fillColor=#e1d5e7;strokeColor=#9673a6;fontFamily=Lucida Console;fontSize=12;" vertex="1" parent="1">
          <mxGeometry x="414" y="169" width="40" height="40" as="geometry" />
        </mxCell>
        <mxCell id="1KvCY6qWmXNgKM9IywfJ-19" value="5" style="rounded=0;whiteSpace=wrap;html=1;fillColor=#ffe6cc;strokeColor=#d79b00;fontFamily=Lucida Console;fontSize=12;" vertex="1" parent="1">
          <mxGeometry x="454" y="129" width="40" height="80" as="geometry" />
        </mxCell>
        <mxCell id="1KvCY6qWmXNgKM9IywfJ-20" value="6" style="rounded=0;whiteSpace=wrap;html=1;fillColor=#e1d5e7;strokeColor=#9673a6;fontFamily=Lucida Console;fontSize=12;" vertex="1" parent="1">
          <mxGeometry x="494" y="169" width="40" height="40" as="geometry" />
        </mxCell>
        <mxCell id="1KvCY6qWmXNgKM9IywfJ-21" value="7" style="rounded=0;whiteSpace=wrap;html=1;fillColor=#f5f5f5;strokeColor=#666666;fontColor=#333333;fontFamily=Lucida Console;fontSize=12;" vertex="1" parent="1">
          <mxGeometry x="534" y="89" width="100" height="120" as="geometry" />
        </mxCell>
        <mxCell id="1KvCY6qWmXNgKM9IywfJ-24" value="Time" style="endArrow=classic;html=1;rounded=0;fontFamily=Lucida Console;fontSize=12;labelBackgroundColor=none;spacingBottom=-20;" edge="1" parent="1">
          <mxGeometry width="50" height="50" relative="1" as="geometry">
            <mxPoint x="205" y="217.75" as="sourcePoint" />
            <mxPoint x="645" y="218" as="targetPoint" />
          </mxGeometry>
        </mxCell>
        <mxCell id="1KvCY6qWmXNgKM9IywfJ-25" value="Resources" style="endArrow=classic;html=1;rounded=0;verticalAlign=middle;horizontal=0;fontFamily=Lucida Console;fontSize=12;labelBackgroundColor=none;spacingLeft=-20;" edge="1" parent="1">
          <mxGeometry width="50" height="50" relative="1" as="geometry">
            <mxPoint x="205" y="217.75" as="sourcePoint" />
            <mxPoint x="205" y="88" as="targetPoint" />
          </mxGeometry>
        </mxCell>
        <mxCell id="1KvCY6qWmXNgKM9IywfJ-26" value="Time" style="endArrow=classic;html=1;rounded=0;fontFamily=Lucida Console;fontSize=12;labelBackgroundColor=none;spacingBottom=-20;" edge="1" parent="1">
          <mxGeometry width="50" height="50" relative="1" as="geometry">
            <mxPoint x="485" y="449" as="sourcePoint" />
            <mxPoint x="805" y="448" as="targetPoint" />
          </mxGeometry>
        </mxCell>
        <mxCell id="1KvCY6qWmXNgKM9IywfJ-27" value="Resources" style="endArrow=classic;html=1;rounded=0;verticalAlign=middle;horizontal=0;fontFamily=Lucida Console;fontSize=12;labelBackgroundColor=none;spacingLeft=-20;" edge="1" parent="1">
          <mxGeometry width="50" height="50" relative="1" as="geometry">
            <mxPoint x="485" y="449" as="sourcePoint" />
            <mxPoint x="485" y="319" as="targetPoint" />
          </mxGeometry>
        </mxCell>
        <mxCell id="1KvCY6qWmXNgKM9IywfJ-38" value="1" style="rounded=0;whiteSpace=wrap;html=1;fillColor=#dae8fc;strokeColor=#6c8ebf;fontFamily=Lucida Console;fontSize=12;" vertex="1" parent="1">
          <mxGeometry x="55" y="398" width="120" height="40" as="geometry" />
        </mxCell>
        <mxCell id="1KvCY6qWmXNgKM9IywfJ-39" value="2" style="rounded=0;whiteSpace=wrap;html=1;fillColor=#d5e8d4;strokeColor=#82b366;fontFamily=Lucida Console;fontSize=12;" vertex="1" parent="1">
          <mxGeometry x="175" y="318" width="40" height="120" as="geometry" />
        </mxCell>
        <mxCell id="1KvCY6qWmXNgKM9IywfJ-40" value="3" style="rounded=0;whiteSpace=wrap;html=1;fillColor=#ffe6cc;strokeColor=#d79b00;fontFamily=Lucida Console;fontSize=12;" vertex="1" parent="1">
          <mxGeometry x="215" y="358" width="40" height="80" as="geometry" />
        </mxCell>
        <mxCell id="1KvCY6qWmXNgKM9IywfJ-41" value="4" style="rounded=0;whiteSpace=wrap;html=1;fillColor=#e1d5e7;strokeColor=#9673a6;fontFamily=Lucida Console;fontSize=12;" vertex="1" parent="1">
          <mxGeometry x="215" y="318" width="40" height="40" as="geometry" />
        </mxCell>
        <mxCell id="1KvCY6qWmXNgKM9IywfJ-42" value="5" style="rounded=0;whiteSpace=wrap;html=1;fillColor=#ffe6cc;strokeColor=#d79b00;fontFamily=Lucida Console;fontSize=12;" vertex="1" parent="1">
          <mxGeometry x="255" y="358" width="40" height="80" as="geometry" />
        </mxCell>
        <mxCell id="1KvCY6qWmXNgKM9IywfJ-43" value="6" style="rounded=0;whiteSpace=wrap;html=1;fillColor=#e1d5e7;strokeColor=#9673a6;fontFamily=Lucida Console;fontSize=12;" vertex="1" parent="1">
          <mxGeometry x="255" y="318" width="40" height="40" as="geometry" />
        </mxCell>
        <mxCell id="1KvCY6qWmXNgKM9IywfJ-44" value="7" style="rounded=0;whiteSpace=wrap;html=1;fillColor=#f5f5f5;strokeColor=#666666;fontColor=#333333;fontFamily=Lucida Console;fontSize=12;" vertex="1" parent="1">
          <mxGeometry x="295" y="318" width="100" height="120" as="geometry" />
        </mxCell>
        <mxCell id="1KvCY6qWmXNgKM9IywfJ-45" value="1" style="rounded=0;whiteSpace=wrap;html=1;fillColor=#dae8fc;strokeColor=#6c8ebf;fontFamily=Lucida Console;fontSize=12;" vertex="1" parent="1">
          <mxGeometry x="494" y="398" width="120" height="40" as="geometry" />
        </mxCell>
        <mxCell id="1KvCY6qWmXNgKM9IywfJ-46" value="2" style="rounded=0;whiteSpace=wrap;html=1;fillColor=#d5e8d4;strokeColor=#82b366;fontFamily=Lucida Console;fontSize=12;" vertex="1" parent="1">
          <mxGeometry x="614" y="318" width="40" height="120" as="geometry" />
        </mxCell>
        <mxCell id="1KvCY6qWmXNgKM9IywfJ-47" value="3" style="rounded=0;whiteSpace=wrap;html=1;fillColor=#ffe6cc;strokeColor=#d79b00;fontFamily=Lucida Console;fontSize=12;" vertex="1" parent="1">
          <mxGeometry x="534" y="318" width="40" height="80" as="geometry" />
        </mxCell>
        <mxCell id="1KvCY6qWmXNgKM9IywfJ-48" value="4" style="rounded=0;whiteSpace=wrap;html=1;fillColor=#e1d5e7;strokeColor=#9673a6;fontFamily=Lucida Console;fontSize=12;" vertex="1" parent="1">
          <mxGeometry x="494" y="358" width="40" height="40" as="geometry" />
        </mxCell>
        <mxCell id="1KvCY6qWmXNgKM9IywfJ-49" value="5" style="rounded=0;whiteSpace=wrap;html=1;fillColor=#ffe6cc;strokeColor=#d79b00;fontFamily=Lucida Console;fontSize=12;" vertex="1" parent="1">
          <mxGeometry x="574" y="318" width="40" height="80" as="geometry" />
        </mxCell>
        <mxCell id="1KvCY6qWmXNgKM9IywfJ-50" value="6" style="rounded=0;whiteSpace=wrap;html=1;fillColor=#e1d5e7;strokeColor=#9673a6;fontFamily=Lucida Console;fontSize=12;" vertex="1" parent="1">
          <mxGeometry x="494" y="318" width="40" height="40" as="geometry" />
        </mxCell>
        <mxCell id="1KvCY6qWmXNgKM9IywfJ-51" value="7" style="rounded=0;whiteSpace=wrap;html=1;fillColor=#f5f5f5;strokeColor=#666666;fontColor=#333333;fontFamily=Lucida Console;fontSize=12;" vertex="1" parent="1">
          <mxGeometry x="654" y="318" width="100" height="120" as="geometry" />
        </mxCell>
        <mxCell id="1KvCY6qWmXNgKM9IywfJ-53" value="&lt;b style=&quot;font-size: 14px;&quot;&gt;&lt;font style=&quot;font-size: 14px;&quot;&gt;Prioritized job queue&lt;/font&gt;&lt;/b&gt;" style="text;html=1;align=center;verticalAlign=middle;resizable=0;points=[];autosize=1;fontFamily=Lucida Console;fontSize=14;fillColor=none;gradientColor=none;" vertex="1" parent="1">
          <mxGeometry x="350" y="38" width="150" height="30" as="geometry" />
        </mxCell>
        <mxCell id="1KvCY6qWmXNgKM9IywfJ-54" value="&lt;font style=&quot;font-size: 14px;&quot;&gt;First-in-first-out (FIFO) scheduling&lt;/font&gt;" style="text;html=1;align=center;verticalAlign=middle;resizable=0;points=[];autosize=1;fontFamily=Lucida Console;fontStyle=1;fontSize=14;fillColor=none;gradientColor=none;" vertex="1" parent="1">
          <mxGeometry x="125" y="270" width="220" height="30" as="geometry" />
        </mxCell>
        <mxCell id="1KvCY6qWmXNgKM9IywfJ-55" value="&lt;font style=&quot;font-size: 14px;&quot;&gt;FIFO scheduling&amp;nbsp;&lt;/font&gt;&lt;span style=&quot;background-color: initial; font-size: 14px;&quot;&gt;with backfill&lt;/span&gt;" style="text;html=1;align=center;verticalAlign=middle;resizable=0;points=[];autosize=1;fontFamily=Lucida Console;fontStyle=1;fontSize=14;fillColor=none;gradientColor=none;" vertex="1" parent="1">
          <mxGeometry x="539" y="270" width="190" height="30" as="geometry" />
        </mxCell>
        <mxCell id="1KvCY6qWmXNgKM9IywfJ-58" value="(wasted)" style="text;html=1;align=center;verticalAlign=middle;resizable=0;points=[];autosize=1;strokeColor=none;fillColor=none;" vertex="1" parent="1">
          <mxGeometry x="80" y="343" width="70" height="30" as="geometry" />
        </mxCell>
      </root>
    </mxGraphModel>
  </diagram>
</mxfile>
